<?xml version="1.0" encoding="utf-8"?>
<!-- Generator: Adobe Illustrator 17.1.0, SVG Export Plug-In . SVG Version: 6.00 Build 0)  -->
<!DOCTYPE svg PUBLIC "-//W3C//DTD SVG 1.1//EN" "http://www.w3.org/Graphics/SVG/1.1/DTD/svg11.dtd">
<svg version="1.1" xmlns="http://www.w3.org/2000/svg" xmlns:xlink="http://www.w3.org/1999/xlink" x="0px" y="0px"
	 viewBox="0 0 1500 1500" enable-background="new 0 0 1500 1500" xml:space="preserve">
<g id="Room54East">
</g>
<g id="_x38_5Lawn">
</g>
<g id="_x35_9Pavilion9">
	<a id="POLYLINE_136_" xlink:href="http://soundscape.iath.virginia.edu/node/671" >
		<g>
			<polyline fill="#00E4FC" points="511.928,1222.606 565.596,1222.606 565.596,1291.457 511.928,1291.457 511.928,1222.606 			"/>
		</g>
	</a>
</g>
<g id="_x36_3Pavilion8">
	<a id="POLYLINE_113_" xlink:href="http://soundscape.iath.virginia.edu/node/673" >
		<g>
			<polyline fill="#00E4FC" points="933.396,954.712 998.086,954.712 998.086,1018.732 933.396,1018.732 933.396,954.712 			"/>
		</g>
	</a>
</g>
<g id="_x37_2Garden6">
	<a id="SPLINE_2_" xlink:href="link0124" >
		<g opacity="0.69">
			<polygon fill="#05C653" stroke="#FFFFFF" stroke-miterlimit="10" points="1164.581,819.926 1164.581,816.287 1164.581,814.261 
				1165.593,812.209 1166.659,810.183 1166.113,807.585 1164.581,805.557 1163.02,803.505 1160.45,800.44 1159.41,797.867 
				1159.41,795.269 1161.488,792.723 1165.593,787.604 1167.153,785.032 1167.153,782.98 1166.113,780.433 1164.581,778.381 
				1160.45,772.743 1159.93,769.677 1160.942,766.585 1164.581,761.468 1166.113,758.401 1166.659,755.803 1166.113,754.296 
				1164.581,752.243 1163.02,750.191 1160.45,747.619 1158.889,744.553 1158.889,741.981 1160.45,739.409 1162.503,736.863 
				1164.581,734.81 1165.593,732.264 1166.113,730.186 1164.581,728.133 1163.02,726.626 1160.942,724.028 1158.889,721.482 
				1158.889,718.884 1159.93,716.363 1161.982,713.271 1163.54,711.219 1165.101,708.647 1165.593,706.101 1165.101,704.048 
				1163.54,701.996 1161.982,699.943 1159.93,697.397 1158.889,694.799 1158.889,692.253 1159.93,689.706 1163.54,684.562 
				1165.101,682.016 1164.581,679.963 1162.503,676.378 1162.503,672.767 1162.503,672.273 1162.503,671.728 1160.942,671.728 
				1155.279,671.728 1149.563,671.728 1148.525,671.728 1148.055,671.728 1148.055,671.259 1148.055,669.207 1148.055,665.076 
				1148.055,663.023 1148.055,661.984 1148.055,661.516 1147.51,661.516 1144.912,661.023 1142.859,659.464 1138.234,657.385 
				1135.635,656.892 1133.532,657.385 1128.907,659.984 1126.309,661.516 1124.256,661.984 1121.658,661.984 1119.088,661.023 
				1114.437,658.424 1112.331,657.931 1109.758,657.931 1105.107,660.477 1100.459,663.023 1097.861,663.023 1095.834,662.53 
				1091.157,659.984 1088.559,658.945 1085.987,658.945 1083.909,659.464 1081.336,660.477 1076.685,663.569 1074.579,664.062 
				1072.034,664.062 1067.358,661.516 1062.707,659.464 1060.109,659.984 1058.057,661.023 1053.431,664.062 1050.833,665.076 
				1049.767,665.076 1049.275,665.076 1049.275,666.115 1049.275,668.688 1049.275,689.706 1049.275,710.232 1049.275,713.142 
				1046.236,713.142 1033.79,713.142 982.553,713.142 981.046,713.142 981.046,719.429 981.046,720.962 981.046,723.534 
				981.046,729.172 981.046,740.448 981.046,762.48 981.046,773.782 983.177,773.938 990.218,773.938 1015.707,773.938 
				1042.546,773.938 1048.496,773.938 1049.613,773.938 1049.275,777.861 1049.275,779.42 1049.275,781.473 1049.275,791.709 
				1049.275,812.209 1049.275,821.952 1049.275,827.071 1049.275,829.669 1049.767,829.669 1052.365,830.629 1054.964,831.695 
				1059.589,834.241 1061.667,834.761 1063.745,834.241 1068.916,831.695 1070.969,830.629 1073.541,830.136 1075.672,830.136 
				1078.243,831.175 1082.894,834.241 1085.467,834.761 1087.519,834.761 1097.341,830.136 1099.444,830.136 1101.992,831.175 
				1106.693,833.721 1108.72,834.761 1111.319,835.28 1113.371,834.761 1115.969,833.227 1120.646,830.629 1123.218,830.136 
				1125.271,830.629 1130.467,833.227 1132.52,834.241 1135.09,835.28 1137.171,835.28 1139.741,834.241 1144.445,831.695 
				1146.498,831.357 1148.055,831.175 1148.055,829.669 1148.055,825.537 1148.055,821.432 1148.055,820.393 1148.055,819.926 
				1148.525,819.926 1151.668,819.926 			"/>
		</g>
	</a>
	<a id="POLYLINE_201_" xlink:href="link0125" >
		<g opacity="0.69">
			<polyline fill="#05C653" stroke="#FFFFFF" stroke-miterlimit="10" points="1340.889,661.516 1338.291,660.477 1335.693,659.464 
				1330.525,656.372 1327.952,656.372 1325.354,657.931 1320.208,661.023 1317.638,661.516 1315.04,660.477 1309.869,657.385 
				1307.296,656.372 1304.698,656.372 1299.501,659.464 1296.929,661.023 1294.331,661.516 1291.76,660.477 1289.162,659.464 
				1286.615,657.385 1284.017,656.372 1281.444,656.372 1278.846,657.931 1273.677,661.023 1271.105,661.516 1268.506,660.477 
				1262.843,657.385 1260.245,656.372 1257.647,656.372 1252.476,659.464 1249.878,661.023 1247.305,661.516 1244.707,660.477 
				1242.134,658.945 1239.536,657.385 1236.963,656.372 1234.365,656.372 1231.767,657.931 1226.649,661.023 1224.051,661.516 
				1221.453,660.477 1216.282,657.385 1213.684,656.372 1211.114,656.372 1205.943,659.464 1203.345,661.023 1200.772,661.516 
				1198.174,660.477 1195.575,658.945 1192.511,657.385 1190.433,656.372 1187.86,656.892 1185.262,657.931 1180.065,661.023 
				1177.493,661.516 1177.493,664.062 1177.493,668.688 1177.493,671.259 1177.493,671.728 1176.973,671.728 1175.44,671.728 
				1168.711,671.728 1165.593,671.728 1164.061,671.728 1163.02,671.728 1162.503,671.728 1162.503,675.858 1164.581,679.963 
				1165.101,681.471 1164.581,682.51 1163.02,685.081 1160.45,688.147 1158.889,691.214 1158.889,694.799 1159.93,697.397 
				1162.503,700.488 1164.061,703.035 1165.101,705.087 1165.593,707.633 1164.061,710.7 1161.982,713.271 1159.41,716.363 
				1158.369,719.429 1159.93,722.521 1162.503,725.587 1164.581,728.133 1166.113,730.186 1166.113,731.225 1165.593,732.757 
				1163.54,735.303 1161.488,738.37 1159.41,740.968 1158.889,744.007 1160.45,747.099 1163.02,750.711 1165.101,752.737 
				1166.113,754.79 1166.659,757.388 1165.101,760.947 1163.02,764.039 1160.45,767.079 1159.41,770.17 1159.93,772.223 
				1160.942,773.782 1163.54,777.342 1165.593,779.913 1167.153,782.486 1167.153,785.526 1165.101,788.617 1159.93,794.255 
				1159.41,795.269 1158.889,796.828 1160.45,800.44 1163.02,803.505 1165.101,806.051 1166.659,808.597 1166.113,811.195 
				1165.101,813.741 1164.581,816.287 1164.581,818.34 1164.581,819.354 1164.581,819.926 1165.593,819.926 1176.973,819.926 
				1177.493,819.926 1177.493,820.938 1177.493,821.952 1177.493,823.978 1177.493,829.097 1177.493,831.175 1178.038,830.941 
				1178.637,830.837 1181.103,831.695 1186.299,834.761 1188.897,835.28 1191.47,834.761 1196.641,831.695 1199.239,830.629 
				1201.787,830.629 1204.385,831.695 1206.955,833.227 1209.553,834.761 1212.126,835.28 1214.724,834.761 1217.297,833.227 
				1222.493,830.629 1225.091,830.136 1227.664,831.175 1233.327,834.241 1235.926,835.28 1238.524,834.761 1243.695,831.695 
				1246.265,830.136 1248.863,830.136 1251.436,831.175 1254.034,832.708 1256.632,834.241 1259.179,835.28 1261.75,834.241 
				1264.348,833.227 1269.519,830.136 1272.117,830.136 1274.715,831.175 1279.886,834.241 1282.459,834.761 1285.057,834.241 
				1290.225,831.175 1292.823,830.136 1295.422,830.136 1297.943,831.175 1300.542,832.708 1303.115,834.241 1305.713,834.761 
				1308.856,834.241 1311.427,832.708 1316.572,830.136 1319.17,830.136 1321.743,831.175 1326.911,834.241 1329.509,834.761 
				1332.082,834.241 1337.253,831.175 1339.851,829.669 1340.889,829.669 1340.889,811.689 1340.889,661.516 			"/>
		</g>
	</a>
</g>
<g id="_x38_4arcadeEast" opacity="0.69">
	<a xlink:href="http://soundscape.iath.virginia.edu/node/701" >
		<rect x="917.523" y="383.404" fill="#05C653" width="15.873" height="110.787"/>
	</a>
	<a xlink:href="http://soundscape.iath.virginia.edu/node/678" >
		<rect x="917.523" y="555.552" fill="#05C653" width="15.873" height="157.594"/>
	</a>
	<a xlink:href="http://soundscape.iath.virginia.edu/node/704" >
		<rect x="917.523" y="773.938" fill="#05C653" width="16.381" height="180.896"/>
	</a>
	<a xlink:href="http://soundscape.iath.virginia.edu/node/706" >
		<rect x="917.523" y="1018.732" fill="#05C653" width="15.731" height="210.836"/>
	</a>
	<a xlink:href="http://soundscape.iath.virginia.edu/node/682" >
		<rect x="917.523" y="1281.754" fill="#05C653" width="15.873" height="38.201"/>
	</a>
</g>
<g id="_x38_3arcade">
	<a xlink:href="http://soundscape.iath.virginia.edu/node/700" >
		<rect x="565.596" y="401.676" fill="#05C653" width="20.247" height="102.756"/>
	</a>
	<a xlink:href="http://soundscape.iath.virginia.edu/node/702" >
		<rect x="565.596" y="548.029" fill="#05C653" width="20.247" height="161.372"/>
	</a>
	<a xlink:href="http://soundscape.iath.virginia.edu/node/703" >
		<rect x="565.596" y="783.641" fill="#05C653" width="20.247" height="179.678"/>
	</a>
	<a xlink:href="http://soundscape.iath.virginia.edu/node/705" >
		<rect x="565.596" y="1021.391" fill="#05C653" width="20.247" height="201.214"/>
	</a>
	<a xlink:href="http://soundscape.iath.virginia.edu/node/681" >
		<rect x="565.596" y="1291.457" fill="#05C653" width="20.247" height="22.023"/>
	</a>
</g>
<g id="_x38_7Rotunda">
	<g id="XMLID_1_" opacity="0.69">
		<g>
			<polygon fill="#05C653" points="815.602,201.606 815.602,208.439 814.485,215.22 812.225,222.547 809.964,228.757 
				806.587,235.564 802.612,241.747 801.131,243.592 799.546,242.319 799.962,241.669 800.845,240.474 802.56,237.98 
				802.742,237.668 802.794,237.538 802.742,237.538 802.742,237.408 802.56,237.149 801.884,235.876 801.209,234.602 
				801.027,234.343 800.949,234.161 800.949,234.031 801.339,233.407 802.871,230.653 804.223,227.717 804.82,226.133 
				805.132,225.301 805.21,225.249 805.21,225.171 805.262,225.171 805.625,225.119 806.379,224.911 807.86,224.6 808.587,224.418 
				808.899,224.34 809.081,224.288 809.185,224.288 809.263,224.288 809.263,224.236 809.393,223.898 810.354,220.962 
				810.796,219.455 810.978,218.754 811.056,218.416 810.796,218.052 810.25,217.403 808.042,214.727 808.042,214.545 
				808.094,214.025 808.276,213.142 808.509,211.219 808.769,209.322 808.899,208.361 808.951,207.842 808.951,207.608 
				808.951,207.53 808.042,207.53 806.301,207.53 804.586,207.53 804.171,207.53 804.093,207.348 804.093,206.906 804.093,205.036 
				806.613,203.84 807.236,203.529 807.6,203.399 807.704,203.269 807.704,203.009 807.704,200.982 807.704,198.93 807.704,197.917 
				807.704,197.657 807.548,197.605 807.236,197.397 804.638,196.202 804.352,196.072 804.171,195.942 804.093,195.864 
				804.093,195.422 804.093,194.539 804.093,193.578 804.171,193.396 804.586,193.396 805.444,193.396 808.951,193.396 
				808.509,189.577 808.224,187.654 808.094,186.771 807.964,186.251 807.964,186.069 807.964,185.991 808.509,185.497 
				809.705,184.406 810.874,183.315 811.16,183.081 811.16,183.003 811.108,182.821 810.926,182.12 810.484,180.639 
				809.575,177.729 809.081,176.326 808.951,176.248 808.821,176.196 808.458,176.196 805.677,175.806 805.34,175.806 
				805.262,175.806 805.21,175.754 805.132,175.676 805.08,175.495 804.456,173.884 803.105,170.896 801.624,168.09 
				801.261,167.466 801.027,167.129 800.949,166.947 800.897,166.895 801.027,166.765 801.131,166.453 801.52,165.804 
				802.118,164.53 802.482,163.881 802.612,163.569 802.742,163.439 802.742,163.387 802.69,163.309 802.326,162.686 
				801.52,161.465 799.78,159.048 798.922,157.905 799.416,157.489 802.612,161.491 806.587,167.7 809.964,173.936 812.225,180.717 
				814.485,187.498 815.602,194.253 			"/>
			<polygon fill="#05C653" points="811.16,183.003 811.16,183.081 810.874,183.315 809.705,184.406 808.509,185.497 
				807.964,185.991 807.964,186.069 807.964,186.251 808.094,186.771 808.224,187.654 808.509,189.577 808.951,193.396 
				805.444,193.396 804.586,193.396 804.171,193.396 804.093,193.578 804.093,194.539 804.093,195.422 804.093,195.864 
				804.171,195.942 804.352,196.072 804.638,196.202 807.236,197.397 807.548,197.605 807.704,197.657 807.704,197.917 
				807.704,198.93 807.704,200.982 807.704,203.009 807.704,203.269 807.6,203.399 807.236,203.529 806.613,203.84 804.093,205.036 
				804.093,206.906 804.093,207.348 804.171,207.53 804.586,207.53 806.301,207.53 808.042,207.53 808.951,207.53 808.951,207.608 
				808.951,207.842 808.899,208.361 808.769,209.322 808.509,211.219 808.276,213.142 808.094,214.025 808.042,214.545 
				808.042,214.727 810.25,217.403 810.796,218.052 811.056,218.416 810.978,218.754 810.796,219.455 810.354,220.962 
				809.393,223.898 809.263,224.236 809.263,224.288 809.185,224.288 809.081,224.288 808.899,224.34 808.587,224.418 807.86,224.6 
				806.379,224.911 805.625,225.119 805.262,225.171 805.21,225.171 805.21,225.249 805.132,225.301 804.82,226.133 
				804.223,227.717 802.871,230.653 801.339,233.407 800.949,234.031 800.949,234.161 801.027,234.343 801.209,234.602 
				801.884,235.876 802.56,237.149 802.742,237.408 802.742,237.538 802.794,237.538 802.742,237.668 802.56,237.98 
				800.845,240.474 799.962,241.669 799.546,242.319 799.286,242.631 799.182,242.761 798.922,242.709 798.429,242.631 
				794.609,241.877 794.142,241.799 793.882,241.747 793.804,241.747 793.57,241.929 793.076,242.241 791.102,243.28 
				789.023,243.982 786.945,244.294 784.84,244.294 782.684,243.904 780.605,243.202 778.579,242.137 776.604,240.734 
				774.76,239.071 773.019,237.097 771.356,234.81 769.771,232.238 768.29,229.38 766.991,226.262 765.822,222.937 764.783,219.377 
				763.977,215.74 763.38,211.999 762.886,208.231 762.756,206.309 762.704,205.867 762.704,205.633 762.704,205.503 
				762.652,205.503 762.392,205.503 761.353,205.503 761.275,205.425 761.275,205.036 761.223,203.659 761.145,200.853 
				761.145,199.761 761.145,199.242 761.145,199.008 761.145,198.8 761.665,198.8 762.133,198.8 762.392,198.8 762.522,198.8 
				762.574,198.748 762.574,198.488 762.574,197.527 762.704,195.63 762.99,191.785 763.484,187.966 764.159,184.224 
				765.094,180.587 766.134,177.079 767.381,173.832 768.732,170.766 770.187,168.038 771.798,165.544 773.46,163.387 
				775.253,161.465 777.15,159.88 779.124,158.529 781.203,157.593 783.307,156.944 785.386,156.684 787.542,156.762 
				789.647,157.256 791.673,158.035 793.622,159.126 793.752,159.178 793.804,159.178 793.934,159.178 794.142,159.048 
				794.609,158.918 795.467,158.659 797.259,158.087 798.195,157.827 798.636,157.723 798.688,157.723 798.74,157.723 
				798.792,157.775 798.922,157.905 799.78,159.048 801.52,161.465 802.326,162.686 802.69,163.309 802.742,163.387 
				802.742,163.439 802.612,163.569 802.482,163.881 802.118,164.53 801.52,165.804 801.131,166.453 801.027,166.765 
				800.897,166.895 800.949,166.947 801.027,167.129 801.261,167.466 801.624,168.09 803.105,170.896 804.456,173.884 
				805.08,175.495 805.132,175.676 805.21,175.754 805.262,175.806 805.34,175.806 805.677,175.806 808.458,176.196 
				808.821,176.196 808.951,176.248 809.081,176.326 809.575,177.729 810.484,180.639 810.926,182.12 811.108,182.821 			"/>
			<path fill="#05C653" d="M720.094,258.142l1.767,1.299l0.078,0.052l1.663,0.961l0.598,0.338l1.039,0.494l1.585,0.727l0.104,0.026
				v0.026l1.845,0.598l0.468,0.182l0.104,0.026l0.442,0.156l0.935,0.26l0.234,0.052l0.598,0.182l1.429,0.39l0.364,0.078l1.039,0.208
				l1.117,0.234l0.935,0.182l0.624,0.104l0.675,0.078l2.208,0.312v0.026h0.104l0.312,0.052l1.663,0.13l1.663,0.13
				c0.026,0,0.026,0,0.052,0c2.676,0.182,5.352,0.182,8.002,0h0.078l1.663-0.13l1.637-0.13l0.39-0.052h0.052h0.026l2.182-0.338
				l0.598-0.078l0.753-0.104l0.883-0.182l0.338-0.078l1.793-0.364l0.442-0.078l3.248-0.883l0.935-0.338l1.845-0.676l0.182-0.078
				l1.455-0.676l1.195-0.546l0.468-0.286l1.663-0.961l0.208-0.13l1.637-1.221l0.338-0.26l1.533-1.533l1.091-1.637l0.624-1.741
				l0.26-1.637l-0.26-1.741l-0.727-1.715l-1.169-1.585l-0.026-0.026l-0.935-1.169l-0.39-0.468l-0.52-0.598v-0.026l-0.727-0.831
				l-0.312-0.39h-0.026l-0.753-0.883l-0.182-0.234l-0.702-0.857l-0.312-0.364h-0.026l-0.442-0.52l-0.624-0.779l-0.494-0.624
				l-0.442-0.52l-0.104-0.13l-0.494-0.572l-0.364-0.442l-0.208-0.286v-0.026l-0.182-0.26l-0.676-1.143l-0.598-1.013l-0.286-0.52
				l-0.779-1.403l-0.156-0.312l-0.572-1.221l-0.312-0.624l-0.104-0.338l-0.26-0.468v-0.026l-0.13-0.312l-0.312-0.779l-0.546-1.455
				l-1.039-3.066l-0.935-3.196l-0.779-3.248l-0.624-3.43l-0.494-3.456l-0.312-3.482l-0.052-0.909v-0.364h0.052h0.13h0.416h0.442
				h0.234h0.13v-0.078l0.078,0.078h1.039h0.26h0.052v0.13v0.234l0.052,0.442l0.13,1.923l0.494,3.767l0.598,3.741l0.805,3.637
				l1.039,3.559l1.169,3.326l1.299,3.118l1.481,2.858l1.585,2.572l1.663,2.286l1.741,1.975l1.845,1.663l1.975,1.403l2.027,1.065
				l2.079,0.701l2.156,0.39h2.104l2.079-0.312l2.078-0.701l1.975-1.039l0.494-0.312l0.234-0.182h0.078l0.26,0.052l0.468,0.078
				l3.819,0.753l0.494,0.078l0.26,0.052l0.104-0.13l0.26-0.312l1.585,1.273l-3.04,3.819l-5.664,5.092V355.91h-87.038V254.738
				l-6.21-5.066l-4.521-5.534l1.663-1.377h0.052h0.078l0.13-0.052l1.767-0.338l1.845-0.312l0.935-0.182l0.182-0.078h0.052
				l0.182,0.13l0.494,0.312l1.975,1.039l2.104,0.701l2.079,0.312h2.156l2.079-0.39l2.104-0.701l2.104-1.065l1.897-1.403l1.897-1.741
				l1.741-1.975l1.637-2.208l1.611-2.624l1.403-2.858l1.351-3.118l1.169-3.326l0.987-3.559l0.883-3.637l0.598-3.767l0.442-3.819
				l0.182-1.897l0.052-0.961v-0.208v-0.104h0.13h0.546h0.494h0.26v-0.078l0.052,0.078h0.13h0.182h0.909h0.078h0.052v0.182v0.442
				l-0.13,1.715l-0.364,3.585l-0.546,3.43l-0.624,3.378l-0.805,3.248l-0.909,3.196l-1.039,2.988l-0.624,1.455l-0.312,0.779
				l-0.13,0.312l-0.701,1.455l-0.468,0.961l-0.286,0.572l-0.831,1.507l-0.104,0.208l-0.753,1.221l-0.598,0.961l-0.234,0.312
				l-0.026,0.026v0.026l-0.286,0.39l-0.442,0.65l-0.208,0.26h-0.026l-0.39,0.494l-0.598,0.753l-0.26,0.338l-0.676,0.883
				l-0.364,0.442l-0.572,0.753v0.026l-0.727,0.961l-0.208,0.26l-0.598,0.753l-0.286,0.364l-0.546,0.676l0.052,0.026l-0.26,0.286
				h-0.026l-0.961,0.961l-0.286,0.286l-1.117,1.663l-0.624,1.663l-0.182,1.715l0.26,1.663l0.676,1.663l1.169,1.637l1.533,1.533
				L720.094,258.142z M787.802,252.867c1.715-1.221,2.494-3.404,1.975-5.482c-3.014,1.481-6.547,1.481-9.561,0h-0.026
				c-0.494,2.079,0.286,4.261,1.975,5.482S786.113,254.089,787.802,252.867z M786.451,263.494c0-2.754-2.182-4.988-4.833-4.988
				c-2.676,0-4.833,2.234-4.833,4.988c0,2.78,2.156,5.014,4.833,5.014C784.269,268.508,786.451,266.274,786.451,263.494z
				 M718.64,263.494c0-2.754-2.156-4.988-4.807-4.988c-2.676,0-4.833,2.234-4.833,4.988c0,2.78,2.156,5.014,4.833,5.014
				C716.483,268.508,718.64,266.274,718.64,263.494z M713.261,252.867c1.715-1.221,2.494-3.404,1.975-5.482
				c-3.04,1.481-6.547,1.481-9.587,0c-0.52,2.079,0.26,4.261,1.975,5.482C709.312,254.089,711.573,254.089,713.261,252.867z"/>
			<path fill="#05C653" d="M790.167,155.203c0.364-1.975-0.468-3.949-2.079-5.066c-1.585-1.091-3.689-1.117-5.3-0.026
				c-1.611,1.091-2.468,3.092-2.13,5.066h0.026C783.775,154.138,787.101,154.138,790.167,155.203z M798.091,155.827l1.325,1.663
				l-0.494,0.416l-0.13-0.13l-0.052-0.052h-0.052h-0.052l-0.442,0.104l-0.935,0.26l-1.793,0.572l-0.857,0.26l-0.468,0.13
				l-0.208,0.13h-0.13h-0.052l-0.13-0.052l-1.949-1.091l-2.027-0.779l-2.104-0.494l-2.156-0.078l-2.078,0.26l-2.104,0.65
				l-2.079,0.935l-1.975,1.351l-1.897,1.585l-1.793,1.923l-1.663,2.156l-1.611,2.494l-1.455,2.728l-1.351,3.066l-1.247,3.248
				l-1.039,3.507l-0.935,3.637l-0.675,3.741l-0.494,3.819l-0.286,3.845l-0.13,1.897v0.961v0.26l-0.052,0.052h-0.13h-0.26h-0.468
				h-0.52v0.208l-0.052-0.208h-0.442h-0.909v-1.715l0.26-3.559l0.364-3.507l0.494-3.456l0.676-3.378l0.779-3.248l0.935-3.17
				l1.039-2.988l1.247-2.884l1.273-2.728l0.753-1.273l0.416-0.702l0.312-0.52l0.364-0.572l0.494-0.753l0.624-0.961l0.727-1.143
				l0.935-1.481l1.169-1.637l1.299-2.053l0.286-0.26l0.857-1.013l0.805-1.013l0.572-1.013l0.416-1.169l0.26-1.065l0.052-1.143
				l-0.182-1.091l-0.312-1.143l-0.494-1.091l-0.676-1.013l-0.857-1.013l-0.987-0.961l-1.117-0.883l-1.351-0.909l-1.403-0.883
				l-1.663-0.779l-1.715-0.753l-1.923-0.702l-4.001-1.091l-4.365-0.831l-2.156-0.234l-1.091-0.13h-0.546l-0.208-0.078v-1.403v-2.806
				v-0.104l-0.286-0.078v-2.027h40.609v19.798L798.091,155.827z M785.568,139.64c0-2.312-1.819-4.235-4.079-4.235
				s-4.079,1.923-4.079,4.235c0,2.364,1.819,4.261,4.079,4.261S785.568,142.005,785.568,139.64z"/>
			<path fill="#05C653" d="M788.088,150.137c1.611,1.117,2.442,3.092,2.079,5.066c-3.066-1.065-6.391-1.065-9.483-0.026h-0.026
				c-0.338-1.975,0.52-3.975,2.13-5.066C784.399,149.02,786.503,149.045,788.088,150.137z"/>
			<path fill="#05C653" d="M789.777,247.385c0.52,2.079-0.26,4.261-1.975,5.482c-1.689,1.221-3.949,1.221-5.638,0
				s-2.468-3.404-1.975-5.482h0.026C783.229,248.866,786.763,248.866,789.777,247.385z"/>
			<path fill="#05C653" d="M781.619,258.505c2.65,0,4.833,2.234,4.833,4.988c0,2.78-2.182,5.014-4.833,5.014
				c-2.676,0-4.833-2.234-4.833-5.014C776.786,260.74,778.943,258.505,781.619,258.505z"/>
			<path fill="#05C653" d="M781.489,135.405c2.26,0,4.079,1.923,4.079,4.235c0,2.364-1.819,4.261-4.079,4.261
				s-4.079-1.897-4.079-4.261C777.41,137.328,779.228,135.405,781.489,135.405z"/>
			<polygon fill="#05C653" points="778.995,249.568 779.254,251.309 778.995,252.945 778.371,254.686 777.28,256.323 
				775.747,257.856 775.409,258.116 771.928,250.919 772.057,250.841 777.072,246.242 777.098,246.268 778.267,247.853 			"/>
			<polygon fill="#05C653" points="732.41,239.357 733.319,237.798 733.319,237.772 733.839,236.889 734.306,236.005 
				735.138,234.421 735.45,233.849 735.813,233.07 735.995,232.628 735.995,232.498 735.761,232.368 735.268,232.186 
				733.293,231.225 731.396,230.342 730.409,229.9 729.916,229.64 729.838,229.64 729.967,229.328 730.279,228.549 730.903,227.094 
				731.942,224.106 732.851,220.91 733.657,217.663 734.28,214.285 734.826,210.855 735.19,207.27 735.32,205.555 735.32,205.113 
				735.32,204.932 735.268,204.932 735.19,204.932 734.28,204.932 734.099,204.932 733.969,204.932 733.917,204.854 733.969,203.71 
				733.969,202.489 733.969,198.306 734.904,198.228 735.32,198.228 735.372,198.228 735.372,198.099 735.372,197.657 
				735.19,194.097 734.826,190.59 734.332,187.082 733.735,183.705 732.981,180.457 732.072,177.261 731.007,174.222 
				729.786,171.338 728.487,168.61 727.083,166.063 726.33,164.842 726.096,164.53 725.914,164.219 725.473,163.569 
				725.161,163.127 724.797,162.478 724.252,161.724 723.628,160.763 722.901,159.698 721.965,158.295 720.926,156.684 
				719.705,154.917 719.731,154.891 719.159,153.904 718.717,152.813 718.484,151.722 718.406,150.63 718.484,149.487 
				718.769,148.422 719.263,147.331 719.887,146.239 720.744,145.226 721.731,144.213 722.849,143.304 724.07,142.42 
				725.551,141.537 727.083,140.757 728.798,140.004 730.643,139.302 734.644,138.159 738.957,137.328 743.374,136.808 
				743.374,136.185 743.374,133.379 743.374,132.677 743.374,132.547 743.452,132.417 743.556,132.417 744.309,132.417 
				747.011,132.417 749.791,132.417 751.116,132.417 751.818,132.417 752.104,132.495 752.104,132.599 752.104,135.405 
				752.104,136.808 752.312,136.886 752.857,136.886 753.948,137.016 756.105,137.25 760.47,138.081 764.471,139.173 
				766.393,139.874 768.108,140.627 769.771,141.407 771.174,142.29 772.525,143.2 773.642,144.083 774.63,145.044 775.487,146.058 
				776.163,147.071 776.656,148.162 776.968,149.305 777.15,150.397 777.098,151.54 776.838,152.605 776.422,153.774 
				775.851,154.787 775.045,155.801 774.188,156.814 773.902,157.074 772.603,159.126 771.434,160.763 770.499,162.244 
				769.771,163.387 769.148,164.349 768.654,165.102 768.29,165.674 767.978,166.193 767.563,166.895 766.809,168.168 
				765.536,170.896 764.289,173.78 763.25,176.768 762.314,179.937 761.535,183.185 760.859,186.563 760.366,190.018 
				760.002,193.526 759.742,197.085 759.742,198.8 760.652,198.8 761.093,198.8 761.145,199.008 761.145,199.242 761.145,199.761 
				761.145,200.853 761.223,203.659 761.223,204.854 761.275,205.425 761.275,205.503 761.145,205.503 760.911,205.503 
				760.47,205.503 760.054,205.503 759.924,205.503 759.872,205.503 759.872,205.867 759.924,206.776 760.236,210.258 
				760.73,213.713 761.353,217.143 762.133,220.391 763.068,223.586 764.107,226.652 764.653,228.107 764.964,228.887 
				765.094,229.198 765.094,229.224 765.042,229.25 764.549,229.458 763.613,229.9 759.69,231.745 759.197,231.926 758.937,232.056 
				758.937,232.186 759.119,232.576 759.482,233.329 759.664,233.693 760.47,235.278 761.041,236.447 761.327,236.941 
				762.262,238.63 762.288,238.63 762.704,239.383 763.172,240.085 763.25,240.214 763.38,240.396 763.743,240.968 764.289,241.669 
				764.315,241.695 765.094,242.631 765.51,243.176 765.588,243.28 766.264,244.112 766.679,244.553 767.121,245.047 
				767.797,245.826 768.108,246.19 768.862,247.074 768.862,247.1 769.277,247.593 769.979,248.425 770.68,249.256 771.07,249.698 
				771.486,250.139 771.876,250.659 772.057,250.841 771.928,250.919 771.252,251.231 770.265,251.62 770.057,251.724 
				769.641,251.932 769.329,252.062 769.148,252.14 768.966,252.322 768.576,252.53 767.926,252.893 767.277,253.205 
				766.679,253.465 765.588,253.907 765.354,253.985 763.925,254.504 763.795,254.556 762.081,254.998 760.288,255.44 
				758.443,255.803 756.365,256.193 754.624,256.401 752.779,256.583 752.182,256.661 751.324,256.687 747.817,256.765 
				744.179,256.687 743.504,256.661 742.698,256.583 740.854,256.375 739.269,256.193 739.139,256.167 737.034,255.803 
				735.372,255.492 735.19,255.44 733.527,255.05 733.423,255.024 731.864,254.556 731.578,254.478 730.279,254.037 
				729.967,253.907 728.928,253.465 728.253,253.153 727.707,252.893 727.006,252.504 726.642,252.322 726.278,252.14 
				725.551,251.802 725.421,251.75 725.057,251.542 724.381,251.231 724.018,251.101 723.758,250.971 723.628,250.919 
				723.888,250.529 724.381,249.906 724.927,249.256 725.239,248.866 725.732,248.295 726.252,247.593 726.252,247.567 
				726.33,247.489 726.824,246.84 727.369,246.164 727.629,245.878 728.305,244.995 728.357,244.917 728.383,244.917 729.37,243.67 
				729.422,243.592 730.227,242.501 730.435,242.241 730.825,241.747 731.267,241.098 731.5,240.786 731.63,240.604 
				732.124,239.825 			"/>
			<polygon fill="#05C653" points="777.072,246.242 772.057,250.841 771.876,250.659 771.486,250.139 771.07,249.698 
				776.137,245.073 			"/>
			<polygon fill="#05C653" points="776.137,245.073 771.07,249.698 770.68,249.256 769.979,248.425 775.227,244.008 
				775.747,244.605 			"/>
			<polygon fill="#05C653" points="771.928,250.919 775.409,258.116 773.772,259.337 773.564,259.467 770.083,251.75 
				770.057,251.724 770.265,251.62 771.252,251.231 			"/>
			<polygon fill="#05C653" points="775.227,243.982 775.227,244.008 769.979,248.425 769.277,247.593 768.862,247.1 
				768.862,247.074 774.162,242.761 774.188,242.761 774.5,243.15 			"/>
			<polygon fill="#05C653" points="774.162,242.761 768.862,247.074 768.108,246.19 767.797,245.826 773.227,241.643 
				773.409,241.877 			"/>
			<polygon fill="#05C653" points="770.083,251.75 773.564,259.467 771.902,260.428 768.576,252.53 768.966,252.322 769.148,252.14 
				769.329,252.062 769.641,251.932 770.057,251.724 			"/>
			<polygon fill="#05C653" points="773.227,241.643 767.797,245.826 767.121,245.047 766.679,244.553 772.187,240.422 
				772.213,240.422 772.525,240.786 			"/>
			<polygon fill="#05C653" points="771.746,239.903 772.187,240.422 766.679,244.553 766.264,244.112 765.588,243.28 
				765.51,243.176 765.536,243.15 771.122,239.123 			"/>
			<polygon fill="#05C653" points="768.576,252.53 771.902,260.428 771.434,260.714 770.239,261.259 767.277,253.205 
				767.926,252.893 			"/>
			<polygon fill="#05C653" points="770.628,238.5 771.122,239.123 765.536,243.15 765.51,243.176 765.094,242.631 764.315,241.695 
				764.367,241.669 770.083,237.85 770.187,237.98 			"/>
			<polygon fill="#05C653" points="767.277,253.205 770.239,261.259 768.784,261.935 768.602,262.013 765.588,253.907 
				766.679,253.465 			"/>
			<polygon fill="#05C653" points="770.083,237.85 764.367,241.669 764.315,241.695 764.289,241.669 763.743,240.968 
				763.38,240.396 763.25,240.214 769.018,236.551 769.225,236.837 769.589,237.279 			"/>
			<polygon fill="#05C653" points="769.018,236.525 769.018,236.551 763.25,240.214 763.172,240.085 762.704,239.383 
				762.288,238.63 768.16,235.122 768.836,236.265 			"/>
			<polygon fill="#05C653" points="765.588,253.907 768.602,262.013 766.757,262.688 763.925,254.504 765.354,253.985 			"/>
			<polygon fill="#05C653" points="768.16,235.122 762.288,238.63 762.262,238.63 761.327,236.941 767.251,233.589 767.277,233.589 
				767.563,234.109 			"/>
			<polygon fill="#05C653" points="766.497,232.186 767.277,233.589 767.251,233.589 761.327,236.941 761.041,236.447 
				760.47,235.278 			"/>
			<path fill="#05C653" d="M764.549,263.338l-2.468-8.34l1.715-0.442l0.13-0.052l2.832,8.184l-0.935,0.338l-3.248,0.883
				l-0.442,0.078v-0.026C762.938,263.78,763.743,263.572,764.549,263.338z"/>
			<polygon fill="#05C653" points="766.342,231.874 766.497,232.186 760.47,235.278 759.664,233.693 765.77,230.653 			"/>
			<polygon fill="#05C653" points="765.458,230.03 765.77,230.653 759.664,233.693 759.482,233.329 759.119,232.576 
				758.937,232.186 758.937,232.056 759.197,231.926 759.69,231.745 763.613,229.9 764.549,229.458 765.042,229.25 765.094,229.224 
				765.354,229.692 			"/>
			<path fill="#05C653" d="M762.081,254.998l2.468,8.34c-0.805,0.234-1.611,0.442-2.416,0.624l-1.845-8.522L762.081,254.998z"/>
			<path fill="#05C653" d="M760.288,255.44l1.845,8.522c-0.598,0.13-1.195,0.26-1.793,0.39c-0.104,0.026-0.208,0.052-0.338,0.052
				l-1.559-8.574v-0.026L760.288,255.44z"/>
			<path fill="#05C653" d="M758.443,255.829l1.559,8.574c-0.546,0.13-1.091,0.208-1.637,0.312l-0.598,0.078l-1.403-8.6l2.079-0.39
				V255.829z"/>
			<polygon fill="#05C653" points="756.365,256.193 757.768,264.793 755.585,265.131 755.559,265.131 754.624,256.401 			"/>
			<polygon fill="#05C653" points="754.624,256.401 755.559,265.131 755.507,265.131 753.481,265.313 752.779,256.583 			"/>
			<polygon fill="#05C653" points="752.779,256.583 753.481,265.313 751.818,265.442 751.324,256.687 752.182,256.661 			"/>
			<path fill="#05C653" d="M705.259,155.203c3.092-1.065,6.417-1.065,9.483-0.026h0.026c0.338-1.975-0.494-3.975-2.104-5.066
				c-1.637-1.091-3.715-1.065-5.326,0.026C705.727,151.254,704.921,153.229,705.259,155.203z M751.818,130.391v2.027h-0.701h-1.325
				h-2.78h-2.702h-0.753h-0.104l-0.078,0.13v0.13v0.701v2.806v0.624l-4.417,0.52l-4.313,0.831l-4.001,1.143l-1.845,0.701
				l-1.715,0.753l-1.533,0.779l-1.481,0.883l-1.221,0.883l-1.117,0.909l-0.987,1.013l-0.857,1.013l-0.624,1.091l-0.494,1.091
				l-0.286,1.065l-0.078,1.143l0.078,1.091l0.234,1.091l0.442,1.091l0.572,0.987l-0.026,0.026l1.221,1.767l1.039,1.611l0.935,1.403
				l0.727,1.065l0.624,0.961l0.546,0.753l0.364,0.65l0.312,0.442l0.442,0.65l0.182,0.312l0.234,0.312l0.753,1.221l1.403,2.546
				l1.299,2.728l1.221,2.884l1.065,3.04l0.909,3.196l0.753,3.248l0.598,3.378l0.494,3.508l0.364,3.507l0.182,3.559v0.442v0.13
				h-0.052h-0.416l-0.935,0.078l-0.052-0.078h-0.312h-0.494h-0.494l-0.052-0.052v-0.961l-0.13-1.923l-0.312-3.819l-0.546-3.819
				l-0.676-3.689l-0.935-3.637l-1.039-3.508l-1.221-3.248l-1.429-2.988l-1.481-2.754l-1.585-2.468l-1.663-2.182l-1.793-1.845
				l-1.897-1.585l-2.027-1.325l-2.104-0.909l-2.079-0.624l-2.156-0.208l-2.104,0.13l-2.079,0.52l-2.027,0.753l-0.987,0.572
				l-0.494,0.26l-0.26,0.208h-0.052l-0.442-0.13l-0.857-0.26l-1.715-0.52l-1.663-0.494h-0.052l-0.13,0.104l-0.702-0.624l3.248-3.611
				l6.21-5.638v-17.563H751.818z M718.042,139.64c0-2.312-1.845-4.235-4.105-4.235s-4.079,1.923-4.079,4.235
				c0,2.364,1.819,4.261,4.079,4.261S718.042,142.005,718.042,139.64z"/>
			<path fill="#05C653" d="M751.324,256.687l0.494,8.756h-0.078c-2.65,0.182-5.326,0.182-8.002,0l0.442-8.756l3.637,0.078
				L751.324,256.687z"/>
			<path fill="#05C653" d="M744.179,256.687l-0.442,8.756c-0.026,0-0.026,0-0.052,0l-1.663-0.156l0.675-8.704l0.805,0.078
				L744.179,256.687z"/>
			<polygon fill="#05C653" points="742.698,256.583 742.023,265.287 740.048,265.131 739.944,265.105 740.854,256.401 
				740.854,256.375 			"/>
			<polygon fill="#05C653" points="740.854,256.375 740.854,256.401 739.944,265.105 737.736,264.793 739.139,256.193 
				739.139,256.167 739.269,256.193 			"/>
			<polygon fill="#05C653" points="739.139,256.167 739.139,256.193 737.736,264.793 737.06,264.715 736.437,264.611 
				735.502,264.429 737.034,255.829 737.034,255.803 			"/>
			<path fill="#05C653" d="M737.034,255.803v0.026l-1.533,8.6l-1.117-0.234c-0.338-0.078-0.702-0.156-1.039-0.234l1.845-8.522
				l0.182,0.052L737.034,255.803z"/>
			<polygon fill="#05C653" points="735.995,232.498 735.995,232.628 735.813,233.07 735.45,233.849 735.138,234.421 
				729.162,231.095 729.136,231.095 729.838,229.64 729.916,229.64 730.409,229.9 731.396,230.342 733.293,231.225 735.268,232.186 
				735.761,232.368 			"/>
			<path fill="#05C653" d="M735.19,255.44l-1.845,8.522c-0.598-0.13-1.195-0.286-1.793-0.442l-0.598-0.182l2.468-8.314l0.104,0.026
				L735.19,255.44z"/>
			<polygon fill="#05C653" points="735.138,234.421 734.306,236.005 728.383,232.628 728.668,232.056 729.136,231.095 
				729.162,231.095 			"/>
			<polygon fill="#05C653" points="728.383,232.628 734.306,236.005 733.839,236.889 733.319,237.772 727.577,234.161 
				727.551,234.135 			"/>
			<polygon fill="#05C653" points="733.969,198.306 733.969,202.489 733.917,204.594 733.917,204.854 733.917,204.932 
				733.657,204.932 733.163,204.932 732.618,204.932 732.488,204.932 732.488,205.036 732.488,205.243 732.436,206.205 
				732.254,208.101 731.812,211.921 731.215,215.688 730.331,219.325 729.344,222.885 728.175,226.21 726.824,229.328 
				725.421,232.186 723.81,234.81 722.173,237.019 720.432,238.993 718.536,240.734 716.639,242.137 714.534,243.202 
				712.43,243.904 710.351,244.294 708.195,244.294 706.116,243.982 704.012,243.28 702.037,242.241 701.544,241.929 
				701.362,241.799 701.31,241.799 701.128,241.877 700.193,242.059 698.348,242.371 696.581,242.709 696.451,242.761 
				696.373,242.761 696.321,242.761 696.269,242.631 694.477,240.214 692.814,237.668 692.762,237.538 692.814,237.408 
				693.126,236.837 694.373,234.602 694.425,234.473 694.425,234.421 694.295,234.161 693.853,233.537 692.398,230.783 
				690.969,227.847 690.372,226.262 690.06,225.509 689.93,225.119 689.852,225.119 688.579,224.807 687.228,224.47 686.604,224.34 
				686.241,224.236 685.253,221.352 684.448,218.416 686.422,216 686.916,215.428 687.15,215.116 687.228,215.038 687.15,214.675 
				686.994,213.713 686.656,211.791 686.241,207.971 686.163,207.712 686.163,207.608 686.241,207.608 686.371,207.608 
				686.604,207.608 687.462,207.608 690.969,207.608 691.021,207.53 691.021,207.4 691.021,207.14 691.021,206.698 691.021,205.815 
				691.021,205.373 691.021,205.113 691.021,205.036 690.839,204.984 689.566,204.334 688.267,203.71 687.592,203.451 
				687.462,203.321 687.462,203.061 687.462,202.567 687.462,198.488 687.462,197.969 687.462,197.709 687.54,197.605 
				688.215,197.345 689.488,196.696 690.787,196.072 691.021,195.942 691.021,195.682 691.021,195.241 691.021,193.448 
				687.54,193.448 686.656,193.448 686.163,193.448 686.163,193.318 686.241,193.058 686.241,192.616 686.371,191.681 
				686.604,189.758 687.228,185.939 687.228,185.731 687.228,185.679 687.15,185.627 686.994,185.549 686.474,185.056 
				684.396,183.133 684.318,183.081 684.396,182.691 684.812,181.211 685.695,178.353 686.241,176.898 686.422,176.248 
				686.474,176.248 686.656,176.196 687.28,176.118 688.527,175.988 689.8,175.806 689.93,175.806 690.554,174.222 691.905,171.156 
				693.36,168.35 694.165,167.077 694.373,166.765 694.425,166.557 694.425,166.505 693.178,164.219 692.866,163.647 
				692.814,163.517 692.762,163.387 692.944,163.075 693.36,162.426 695.1,159.932 695.958,158.737 696.451,158.165 
				696.633,157.827 696.763,157.723 696.815,157.723 698.478,158.217 700.193,158.737 701.05,158.996 701.492,159.126 
				701.544,159.126 701.804,158.918 702.297,158.659 703.284,158.087 705.311,157.334 707.39,156.814 709.494,156.684 
				711.651,156.892 713.729,157.515 715.834,158.425 717.86,159.75 719.757,161.335 721.549,163.179 723.212,165.362 
				724.797,167.83 726.278,170.584 727.707,173.572 728.928,176.82 729.967,180.327 730.903,183.965 731.578,187.654 
				732.124,191.473 732.436,195.293 732.566,197.215 732.566,198.176 732.618,198.228 733.111,198.228 733.605,198.228 
				733.917,198.228 			"/>
			<path fill="#05C653" d="M733.423,255.024l-2.468,8.314l-0.234-0.052c-0.442-0.13-0.909-0.26-1.377-0.416l-0.104-0.026
				l-0.468-0.182l2.806-8.184l0.286,0.078L733.423,255.024z"/>
			<polygon fill="#05C653" points="733.319,237.772 733.319,237.798 732.41,239.357 726.72,235.564 726.694,235.564 
				727.447,234.343 727.551,234.135 727.577,234.161 			"/>
			<polygon fill="#05C653" points="732.41,239.357 732.124,239.825 731.63,240.604 731.5,240.786 725.862,236.889 725.836,236.889 
				725.836,236.863 725.862,236.837 726.096,236.525 726.694,235.564 726.72,235.564 			"/>
			<polygon fill="#05C653" points="730.279,254.037 731.578,254.478 728.772,262.662 726.928,262.065 726.928,262.039 
				726.954,262.013 729.967,253.907 			"/>
			<polygon fill="#05C653" points="731.5,240.786 731.267,241.098 730.825,241.747 730.435,242.241 730.409,242.241 
				724.901,238.188 725.109,237.928 725.551,237.279 725.836,236.889 725.862,236.889 			"/>
			<polygon fill="#05C653" points="730.435,242.241 730.227,242.501 729.422,243.592 729.37,243.67 729.344,243.644 723.94,239.461 
				723.888,239.435 724.485,238.682 724.875,238.188 724.901,238.188 730.409,242.241 			"/>
			<polygon fill="#05C653" points="729.967,253.907 726.954,262.013 726.928,262.039 726.824,262.013 725.239,261.285 
				728.253,253.153 728.928,253.465 			"/>
			<polygon fill="#05C653" points="729.37,243.67 728.383,244.917 728.357,244.917 722.952,240.656 723.628,239.773 
				723.888,239.435 723.94,239.461 729.344,243.644 			"/>
			<polygon fill="#05C653" points="722.952,240.656 728.357,244.917 728.305,244.995 727.629,245.878 727.369,246.164 
				722.043,241.877 722.017,241.877 722.017,241.851 722.589,241.098 			"/>
			<polygon fill="#05C653" points="728.253,253.153 725.239,261.285 724.2,260.792 723.602,260.454 727.006,252.504 
				727.707,252.893 			"/>
			<polygon fill="#05C653" points="727.369,246.164 726.824,246.84 726.33,247.489 726.252,247.567 721.082,243.098 721.29,242.839 
				722.017,241.877 722.043,241.877 			"/>
			<polygon fill="#05C653" points="727.006,252.504 723.602,260.454 721.939,259.493 725.421,251.75 725.551,251.802 
				726.278,252.14 726.642,252.322 			"/>
			<polygon fill="#05C653" points="726.252,247.567 726.252,247.593 725.732,248.295 725.239,248.866 720.198,244.216 
				720.484,243.852 721.082,243.098 			"/>
			<polygon fill="#05C653" points="725.057,251.542 725.421,251.75 721.939,259.493 721.861,259.441 720.094,258.142 
				723.576,250.919 723.628,250.919 723.758,250.971 724.018,251.101 724.381,251.231 			"/>
			<polygon fill="#05C653" points="725.239,248.866 724.927,249.256 724.381,249.906 719.445,245.203 719.705,244.917 
				719.653,244.891 720.198,244.216 			"/>
			<polygon fill="#05C653" points="724.381,249.906 723.888,250.529 723.628,250.919 723.576,250.919 718.458,246.164 
				719.419,245.203 719.445,245.203 			"/>
			<polygon fill="#05C653" points="723.576,250.919 720.094,258.142 719.887,257.986 718.354,256.453 717.185,254.816 
				716.509,253.153 716.249,251.49 716.431,249.776 717.055,248.113 718.172,246.45 718.458,246.164 			"/>
			<path fill="#05C653" d="M713.833,258.505c2.65,0,4.807,2.234,4.807,4.988c0,2.78-2.156,5.014-4.807,5.014
				c-2.676,0-4.833-2.234-4.833-5.014C709,260.74,711.157,258.505,713.833,258.505z"/>
			<path fill="#05C653" d="M715.236,247.385c0.52,2.079-0.26,4.261-1.975,5.482c-1.689,1.221-3.949,1.221-5.638,0
				c-1.715-1.221-2.494-3.404-1.975-5.482C708.689,248.866,712.196,248.866,715.236,247.385z"/>
			<path fill="#05C653" d="M712.664,150.111c1.611,1.091,2.442,3.092,2.104,5.066h-0.026c-3.066-1.039-6.391-1.039-9.483,0.026
				c-0.338-1.975,0.468-3.949,2.078-5.066C708.948,149.045,711.027,149.02,712.664,150.111z"/>
			<path fill="#05C653" d="M713.937,135.405c2.26,0,4.105,1.923,4.105,4.235c0,2.364-1.845,4.261-4.105,4.261
				s-4.079-1.897-4.079-4.261C709.858,137.328,711.677,135.405,713.937,135.405z"/>
			<polygon fill="#05C653" points="696.633,157.827 696.451,158.165 695.958,158.737 695.1,159.932 693.36,162.426 692.944,163.075 
				692.762,163.387 692.814,163.517 692.866,163.647 693.178,164.219 694.425,166.505 694.425,166.557 694.373,166.765 
				694.165,167.077 693.36,168.35 691.905,171.156 690.554,174.222 689.93,175.806 689.8,175.806 688.527,175.988 687.28,176.118 
				686.656,176.196 686.474,176.248 686.422,176.248 686.241,176.898 685.695,178.353 684.812,181.211 684.396,182.691 
				684.318,183.081 684.396,183.133 686.474,185.056 686.994,185.549 687.15,185.627 687.228,185.679 687.228,185.731 
				687.228,185.939 686.604,189.758 686.371,191.681 686.241,192.616 686.241,193.058 686.163,193.318 686.163,193.448 
				686.656,193.448 687.54,193.448 691.021,193.448 691.021,195.241 691.021,195.682 691.021,195.942 690.787,196.072 
				689.488,196.696 688.215,197.345 687.54,197.605 687.462,197.709 687.462,197.969 687.462,198.488 687.462,202.567 
				687.462,203.061 687.462,203.321 687.592,203.451 688.267,203.71 689.566,204.334 690.839,204.984 691.021,205.036 
				691.021,205.113 691.021,205.373 691.021,205.815 691.021,206.698 691.021,207.14 691.021,207.4 691.021,207.53 690.969,207.608 
				687.462,207.608 686.604,207.608 686.371,207.608 686.241,207.608 686.163,207.608 686.163,207.712 686.241,207.971 
				686.656,211.791 686.994,213.713 687.15,214.675 687.228,215.038 687.15,215.116 686.916,215.428 686.422,216 684.448,218.416 
				685.253,221.352 686.241,224.236 686.604,224.34 687.228,224.47 688.579,224.807 689.852,225.119 689.93,225.119 690.06,225.509 
				690.372,226.262 690.969,227.847 692.398,230.783 693.853,233.537 694.295,234.161 694.425,234.421 694.425,234.473 
				694.373,234.602 693.126,236.837 692.814,237.408 692.762,237.538 692.814,237.668 694.477,240.214 696.269,242.631 
				696.321,242.761 694.659,244.138 694.087,243.436 689.566,237.227 686.163,230.471 683.357,223.69 681.096,216.337 
				679.953,208.985 679.382,201.606 679.953,194.253 681.096,186.381 683.357,179.574 686.163,172.247 689.566,165.466 
				694.087,159.256 695.932,157.204 			"/>
		</g>
		<g>
			<polyline fill="none" stroke="#FFFFFF" stroke-miterlimit="10" points="705.389,147.954 699.179,153.592 695.932,157.204 
				694.087,159.256 689.566,165.466 686.163,172.247 683.357,179.574 681.096,186.381 679.953,194.253 679.382,201.606 
				679.953,208.985 681.096,216.337 683.357,223.69 686.163,230.471 689.566,237.227 694.087,243.436 694.659,244.138 
				699.179,249.672 705.389,254.738 705.389,355.91 792.427,355.91 792.427,252.504 798.091,247.411 801.131,243.592 
				802.612,241.747 806.587,235.564 809.964,228.757 812.225,222.547 814.485,215.22 815.602,208.439 815.602,201.606 
				815.602,194.253 814.485,187.498 812.225,180.717 809.964,173.936 806.587,167.7 802.612,161.491 799.416,157.489 
				798.091,155.827 792.427,150.189 792.427,130.391 751.818,130.391 705.389,130.391 705.389,147.954 			"/>
			<polyline fill="none" stroke="#FFFFFF" stroke-miterlimit="10" points="737.112,264.741 739.944,265.131 740.048,265.131 
				740.36,265.183 742.023,265.313 743.686,265.442 			"/>
			<line fill="none" stroke="#FFFFFF" stroke-miterlimit="10" x1="755.585" y1="265.131" x2="758.391" y2="264.741"/>
			<polyline fill="none" stroke="#FFFFFF" stroke-miterlimit="10" points="753.481,265.313 755.118,265.183 755.507,265.131 			"/>
			<polyline fill="none" stroke="#FFFFFF" stroke-miterlimit="10" points="724.901,238.188 725.109,237.928 725.551,237.279 
				725.836,236.889 725.836,236.863 725.862,236.837 726.096,236.525 726.694,235.564 727.447,234.343 727.551,234.135 
				728.383,232.628 728.668,232.056 729.136,231.095 729.838,229.64 			"/>
			<polyline fill="none" stroke="#FFFFFF" stroke-miterlimit="10" points="719.627,244.917 719.653,244.891 720.198,244.216 
				720.484,243.852 721.082,243.098 721.29,242.839 722.017,241.877 722.017,241.851 722.589,241.098 722.952,240.656 
				723.628,239.773 723.888,239.435 724.485,238.682 724.875,238.188 			"/>
			<polyline fill="none" stroke="#FFFFFF" stroke-miterlimit="10" points="723.576,250.919 718.458,246.164 718.406,246.138 			"/>
			<polyline fill="none" stroke="#FFFFFF" stroke-miterlimit="10" points="777.15,246.19 777.072,246.242 772.057,250.841 			"/>
			<line fill="none" stroke="#FFFFFF" stroke-miterlimit="10" x1="735.138" y1="234.421" x2="729.162" y2="231.095"/>
			<polyline fill="none" stroke="#FFFFFF" stroke-miterlimit="10" points="734.332,236.005 734.306,236.005 728.383,232.628 			"/>
			<line fill="none" stroke="#FFFFFF" stroke-miterlimit="10" x1="733.319" y1="237.772" x2="727.577" y2="234.161"/>
			<line fill="none" stroke="#FFFFFF" stroke-miterlimit="10" x1="733.345" y1="237.798" x2="733.319" y2="237.798"/>
			<polyline fill="none" stroke="#FFFFFF" stroke-miterlimit="10" points="732.436,239.383 732.41,239.357 726.72,235.564 			"/>
			<line fill="none" stroke="#FFFFFF" stroke-miterlimit="10" x1="731.5" y1="240.786" x2="725.862" y2="236.889"/>
			<polyline fill="none" stroke="#FFFFFF" stroke-miterlimit="10" points="730.409,242.241 724.901,238.188 724.875,238.188 			"/>
			<line fill="none" stroke="#FFFFFF" stroke-miterlimit="10" x1="729.344" y1="243.644" x2="723.94" y2="239.461"/>
			<line fill="none" stroke="#FFFFFF" stroke-miterlimit="10" x1="728.357" y1="244.917" x2="722.952" y2="240.656"/>
			<polyline fill="none" stroke="#FFFFFF" stroke-miterlimit="10" points="727.395,246.19 727.369,246.164 722.043,241.877 			"/>
			<polyline fill="none" stroke="#FFFFFF" stroke-miterlimit="10" points="726.252,247.567 721.082,243.098 721.056,243.072 			"/>
			<line fill="none" stroke="#FFFFFF" stroke-miterlimit="10" x1="726.278" y1="247.593" x2="726.252" y2="247.593"/>
			<line fill="none" stroke="#FFFFFF" stroke-miterlimit="10" x1="725.239" y1="248.866" x2="720.198" y2="244.216"/>
			<line fill="none" stroke="#FFFFFF" stroke-miterlimit="10" x1="719.419" y1="245.203" x2="719.393" y2="245.177"/>
			<polyline fill="none" stroke="#FFFFFF" stroke-miterlimit="10" points="724.433,249.958 724.381,249.906 719.445,245.203 			"/>
			<polyline fill="none" stroke="#FFFFFF" stroke-miterlimit="10" points="765.77,230.653 759.664,233.693 759.612,233.719 			"/>
			<polyline fill="none" stroke="#FFFFFF" stroke-miterlimit="10" points="766.497,232.186 760.47,235.278 760.418,235.304 			"/>
			<polyline fill="none" stroke="#FFFFFF" stroke-miterlimit="10" points="767.251,233.589 761.327,236.941 761.275,236.967 			"/>
			<polyline fill="none" stroke="#FFFFFF" stroke-miterlimit="10" points="768.186,235.122 768.16,235.122 762.288,238.63 			"/>
			<line fill="none" stroke="#FFFFFF" stroke-miterlimit="10" x1="769.018" y1="236.551" x2="763.25" y2="240.214"/>
			<line fill="none" stroke="#FFFFFF" stroke-miterlimit="10" x1="769.044" y1="236.525" x2="769.018" y2="236.525"/>
			<line fill="none" stroke="#FFFFFF" stroke-miterlimit="10" x1="770.083" y1="237.85" x2="764.367" y2="241.669"/>
			<line fill="none" stroke="#FFFFFF" stroke-miterlimit="10" x1="771.122" y1="239.123" x2="765.536" y2="243.15"/>
			<line fill="none" stroke="#FFFFFF" stroke-miterlimit="10" x1="772.187" y1="240.422" x2="766.679" y2="244.553"/>
			<line fill="none" stroke="#FFFFFF" stroke-miterlimit="10" x1="772.239" y1="240.396" x2="772.213" y2="240.422"/>
			<polyline fill="none" stroke="#FFFFFF" stroke-miterlimit="10" points="773.279,241.617 773.227,241.643 767.797,245.826 			"/>
			<line fill="none" stroke="#FFFFFF" stroke-miterlimit="10" x1="768.862" y1="247.1" x2="768.836" y2="247.1"/>
			<line fill="none" stroke="#FFFFFF" stroke-miterlimit="10" x1="774.162" y1="242.761" x2="768.862" y2="247.074"/>
			<polyline fill="none" stroke="#FFFFFF" stroke-miterlimit="10" points="775.227,244.008 769.979,248.425 769.953,248.425 			"/>
			<line fill="none" stroke="#FFFFFF" stroke-miterlimit="10" x1="775.253" y1="243.982" x2="775.227" y2="243.982"/>
			<polyline fill="none" stroke="#FFFFFF" stroke-miterlimit="10" points="776.163,245.047 776.137,245.073 771.07,249.698 			"/>
			<polyline fill="none" stroke="#FFFFFF" stroke-miterlimit="10" points="743.738,265.442 744.179,256.687 744.179,256.661 			"/>
			<path fill="none" stroke="#FFFFFF" stroke-miterlimit="10" d="M731.552,263.52c0.598,0.156,1.195,0.312,1.793,0.442
				c0.338,0.078,0.702,0.156,1.039,0.234"/>
			<path fill="none" stroke="#FFFFFF" stroke-miterlimit="10" d="M729.344,262.87c0.468,0.156,0.935,0.286,1.377,0.416"/>
			<path fill="none" stroke="#FFFFFF" stroke-miterlimit="10" d="M758.365,264.715c0.546-0.104,1.091-0.182,1.637-0.312
				c0.13,0,0.234-0.026,0.338-0.052c0.598-0.13,1.195-0.26,1.793-0.39c0.805-0.182,1.611-0.39,2.416-0.624
				c0.572-0.156,1.117-0.312,1.663-0.494"/>
			<polyline fill="none" stroke="#FFFFFF" stroke-miterlimit="10" points="742.698,256.583 742.023,265.287 742.023,265.313 			"/>
			<polyline fill="none" stroke="#FFFFFF" stroke-miterlimit="10" points="740.854,256.401 739.944,265.105 739.944,265.131 			"/>
			<line fill="none" stroke="#FFFFFF" stroke-miterlimit="10" x1="737.034" y1="255.829" x2="735.502" y2="264.429"/>
			<polyline fill="none" stroke="#FFFFFF" stroke-miterlimit="10" points="735.19,255.44 733.345,263.962 733.345,263.988 			"/>
			<line fill="none" stroke="#FFFFFF" stroke-miterlimit="10" x1="739.139" y1="256.193" x2="737.736" y2="264.793"/>
			<polyline fill="none" stroke="#FFFFFF" stroke-miterlimit="10" points="733.423,254.998 733.423,255.024 730.955,263.338 			"/>
			<polyline fill="none" stroke="#FFFFFF" stroke-miterlimit="10" points="731.578,254.478 728.772,262.662 728.746,262.714 			"/>
			<line fill="none" stroke="#FFFFFF" stroke-miterlimit="10" x1="729.967" y1="253.907" x2="726.954" y2="262.013"/>
			<polyline fill="none" stroke="#FFFFFF" stroke-miterlimit="10" points="728.253,253.153 725.239,261.285 725.239,261.311 			"/>
			<polyline fill="none" stroke="#FFFFFF" stroke-miterlimit="10" points="727.006,252.504 723.602,260.454 723.576,260.48 			"/>
			<polyline fill="none" stroke="#FFFFFF" stroke-miterlimit="10" points="725.421,251.75 721.939,259.493 721.913,259.519 			"/>
			<polyline fill="none" stroke="#FFFFFF" stroke-miterlimit="10" points="723.576,250.919 720.094,258.142 720.069,258.168 			"/>
			<polyline fill="none" stroke="#FFFFFF" stroke-miterlimit="10" points="751.818,265.442 751.324,256.687 751.324,256.661 			"/>
			<line fill="none" stroke="#FFFFFF" stroke-miterlimit="10" x1="752.779" y1="256.583" x2="753.481" y2="265.313"/>
			<line fill="none" stroke="#FFFFFF" stroke-miterlimit="10" x1="754.624" y1="256.401" x2="755.559" y2="265.131"/>
			<polyline fill="none" stroke="#FFFFFF" stroke-miterlimit="10" points="758.443,255.829 760.002,264.403 760.002,264.429 			"/>
			<polyline fill="none" stroke="#FFFFFF" stroke-miterlimit="10" points="760.288,255.44 762.133,263.962 762.133,263.988 			"/>
			<line fill="none" stroke="#FFFFFF" stroke-miterlimit="10" x1="756.365" y1="256.193" x2="757.768" y2="264.793"/>
			<line fill="none" stroke="#FFFFFF" stroke-miterlimit="10" x1="762.081" y1="254.998" x2="764.549" y2="263.338"/>
			<polyline fill="none" stroke="#FFFFFF" stroke-miterlimit="10" points="763.925,254.478 763.925,254.504 766.757,262.688 
				766.757,262.714 			"/>
			<line fill="none" stroke="#FFFFFF" stroke-miterlimit="10" x1="765.588" y1="253.907" x2="768.602" y2="262.013"/>
			<polyline fill="none" stroke="#FFFFFF" stroke-miterlimit="10" points="767.251,253.153 767.277,253.205 770.239,261.259 
				770.265,261.311 			"/>
			<polyline fill="none" stroke="#FFFFFF" stroke-miterlimit="10" points="768.55,252.504 768.576,252.53 771.902,260.428 
				771.928,260.48 			"/>
			<polyline fill="none" stroke="#FFFFFF" stroke-miterlimit="10" points="770.083,251.75 773.564,259.467 773.59,259.519 			"/>
			<polyline fill="none" stroke="#FFFFFF" stroke-miterlimit="10" points="771.928,250.919 775.409,258.116 775.435,258.168 			"/>
			<path fill="none" stroke="#FFFFFF" stroke-miterlimit="10" d="M713.937,135.405c-2.26,0-4.079,1.923-4.079,4.235
				c0,2.364,1.819,4.261,4.079,4.261s4.105-1.897,4.105-4.261C718.042,137.328,716.197,135.405,713.937,135.405z"/>
			<path fill="none" stroke="#FFFFFF" stroke-miterlimit="10" d="M714.768,155.177c0.338-1.975-0.494-3.975-2.104-5.066
				c-1.637-1.091-3.715-1.065-5.326,0.026c-1.611,1.117-2.416,3.092-2.078,5.066v0.026"/>
			<path fill="none" stroke="#FFFFFF" stroke-miterlimit="10" d="M714.742,155.177c-3.066-1.039-6.391-1.039-9.483,0.026"/>
			<path fill="none" stroke="#FFFFFF" stroke-miterlimit="10" d="M781.489,135.405c-2.26,0-4.079,1.923-4.079,4.235
				c0,2.364,1.819,4.261,4.079,4.261s4.079-1.897,4.079-4.261C785.568,137.328,783.749,135.405,781.489,135.405z"/>
			<path fill="none" stroke="#FFFFFF" stroke-miterlimit="10" d="M790.167,155.229v-0.026c0.364-1.975-0.468-3.949-2.079-5.066
				c-1.585-1.091-3.689-1.117-5.3-0.026c-1.611,1.091-2.468,3.092-2.13,5.066"/>
			<path fill="none" stroke="#FFFFFF" stroke-miterlimit="10" d="M790.167,155.203c-3.066-1.065-6.391-1.065-9.483-0.026"/>
			<polyline fill="none" stroke="#FFFFFF" stroke-miterlimit="10" points="719.705,244.917 719.445,245.203 719.419,245.203 
				718.458,246.164 718.172,246.45 717.055,248.113 716.431,249.776 716.249,251.49 716.509,253.153 717.185,254.816 
				718.354,256.453 719.887,257.986 720.094,258.142 721.861,259.441 721.939,259.493 723.602,260.454 724.2,260.792 
				725.239,261.285 726.824,262.013 726.928,262.039 726.928,262.065 728.772,262.662 729.24,262.844 729.344,262.87 
				729.786,263.026 730.721,263.286 730.955,263.338 731.552,263.52 732.981,263.91 733.345,263.988 734.384,264.195 
				735.502,264.429 736.437,264.611 737.06,264.715 737.736,264.793 739.944,265.105 740.048,265.131 742.023,265.287 
				743.686,265.442 			"/>
			<polyline fill="none" stroke="#FFFFFF" stroke-miterlimit="10" points="751.818,265.442 753.481,265.313 755.507,265.131 
				755.559,265.131 755.585,265.131 757.768,264.793 758.365,264.715 759.119,264.611 760.002,264.429 760.34,264.351 
				762.133,263.988 762.574,263.91 765.822,263.026 766.757,262.688 768.602,262.013 768.784,261.935 770.239,261.259 
				771.434,260.714 771.902,260.428 773.564,259.467 773.772,259.337 775.409,258.116 775.747,257.856 777.28,256.323 
				778.371,254.686 778.995,252.945 779.254,251.309 778.995,249.568 778.267,247.853 777.098,246.268 			"/>
			<path fill="none" stroke="#FFFFFF" stroke-miterlimit="10" d="M743.686,265.442c0.026,0,0.026,0,0.052,0
				c2.676,0.182,5.352,0.182,8.002,0"/>
			<path fill="none" stroke="#FFFFFF" stroke-miterlimit="10" d="M713.833,258.505c-2.676,0-4.833,2.234-4.833,4.988
				c0,2.78,2.156,5.014,4.833,5.014c2.65,0,4.807-2.234,4.807-5.014C718.64,260.74,716.483,258.505,713.833,258.505z"/>
			<path fill="none" stroke="#FFFFFF" stroke-miterlimit="10" d="M705.649,247.385c-0.52,2.079,0.26,4.261,1.975,5.482
				c1.689,1.221,3.949,1.221,5.638,0c1.715-1.221,2.494-3.404,1.975-5.482"/>
			<path fill="none" stroke="#FFFFFF" stroke-miterlimit="10" d="M705.649,247.385c3.04,1.481,6.547,1.481,9.587,0"/>
			<path fill="none" stroke="#FFFFFF" stroke-miterlimit="10" d="M781.619,258.505c-2.676,0-4.833,2.234-4.833,4.988
				c0,2.78,2.156,5.014,4.833,5.014c2.65,0,4.833-2.234,4.833-5.014C786.451,260.74,784.269,258.505,781.619,258.505z"/>
			<path fill="none" stroke="#FFFFFF" stroke-miterlimit="10" d="M780.19,247.385c-0.494,2.079,0.286,4.261,1.975,5.482
				s3.949,1.221,5.638,0c1.715-1.221,2.494-3.404,1.975-5.482"/>
			<path fill="none" stroke="#FFFFFF" stroke-miterlimit="10" d="M780.216,247.385c3.014,1.481,6.547,1.481,9.561,0"/>
			<polyline fill="none" stroke="#FFFFFF" stroke-miterlimit="10" points="733.969,198.306 733.917,198.228 733.605,198.228 
				733.111,198.228 732.618,198.228 732.566,198.176 732.566,197.215 732.436,195.293 732.124,191.473 731.578,187.654 
				730.903,183.965 729.967,180.327 728.928,176.82 727.707,173.572 726.278,170.584 724.797,167.83 723.212,165.362 
				721.549,163.179 719.757,161.335 717.86,159.75 715.834,158.425 713.729,157.515 711.651,156.892 709.494,156.684 
				707.39,156.814 705.311,157.334 703.284,158.087 702.297,158.659 701.804,158.918 701.544,159.126 701.492,159.126 
				701.05,158.996 700.193,158.737 698.478,158.217 696.815,157.723 696.763,157.723 696.633,157.827 696.451,158.165 
				695.958,158.737 695.1,159.932 693.36,162.426 692.944,163.075 692.762,163.387 692.814,163.517 692.866,163.647 
				693.178,164.219 694.425,166.505 694.425,166.557 694.373,166.765 694.165,167.077 693.36,168.35 691.905,171.156 
				690.554,174.222 689.93,175.806 689.8,175.806 688.527,175.988 687.28,176.118 686.656,176.196 686.474,176.248 686.422,176.248 
				686.241,176.898 685.695,178.353 684.812,181.211 684.396,182.691 684.318,183.081 684.396,183.133 686.474,185.056 
				686.994,185.549 687.15,185.627 687.228,185.679 687.228,185.731 687.228,185.939 686.604,189.758 686.371,191.681 
				686.241,192.616 686.241,193.058 686.163,193.318 686.163,193.448 686.656,193.448 687.54,193.448 691.021,193.448 
				691.021,195.241 691.021,195.682 691.021,195.942 690.787,196.072 689.488,196.696 688.215,197.345 687.54,197.605 
				687.462,197.709 687.462,197.969 687.462,198.488 687.462,202.567 687.462,203.061 687.462,203.321 687.592,203.451 
				688.267,203.71 689.566,204.334 690.839,204.984 691.021,205.036 691.021,205.113 691.021,205.373 691.021,205.815 
				691.021,206.698 691.021,207.14 691.021,207.4 691.021,207.53 690.969,207.608 687.462,207.608 686.604,207.608 686.371,207.608 
				686.241,207.608 686.163,207.608 686.163,207.712 686.241,207.971 686.656,211.791 686.994,213.713 687.15,214.675 
				687.228,215.038 687.15,215.116 686.916,215.428 686.422,216 684.448,218.416 			"/>
			<polyline fill="none" stroke="#FFFFFF" stroke-miterlimit="10" points="684.448,218.416 685.253,221.352 686.241,224.236 
				686.604,224.34 687.228,224.47 688.579,224.807 689.852,225.119 689.93,225.119 690.06,225.509 690.372,226.262 690.969,227.847 
				692.398,230.783 693.853,233.537 694.295,234.161 694.425,234.421 694.425,234.473 694.373,234.602 693.126,236.837 
				692.814,237.408 692.762,237.538 692.814,237.668 694.477,240.214 696.269,242.631 696.321,242.761 696.373,242.761 
				696.451,242.761 696.581,242.709 698.348,242.371 700.193,242.059 701.128,241.877 701.31,241.799 701.362,241.799 
				701.544,241.929 702.037,242.241 704.012,243.28 706.116,243.982 708.195,244.294 710.351,244.294 712.43,243.904 
				714.534,243.202 716.639,242.137 718.536,240.734 720.432,238.993 722.173,237.019 723.81,234.81 725.421,232.186 
				726.824,229.328 728.175,226.21 729.344,222.885 730.331,219.325 731.215,215.688 731.812,211.921 732.254,208.101 
				732.436,206.205 732.488,205.243 732.488,205.036 732.488,204.932 732.618,204.932 733.163,204.932 733.657,204.932 
				733.917,204.932 733.917,204.854 733.969,203.71 733.969,202.489 			"/>
			<polyline fill="none" stroke="#FFFFFF" stroke-miterlimit="10" points="761.223,203.659 761.223,204.854 761.275,205.425 
				761.353,205.503 762.392,205.503 762.652,205.503 762.704,205.503 762.704,205.633 762.704,205.867 762.756,206.309 
				762.886,208.231 763.38,211.999 763.977,215.74 764.783,219.377 765.822,222.937 766.991,226.262 768.29,229.38 769.771,232.238 
				771.356,234.81 773.019,237.097 774.76,239.071 776.604,240.734 778.579,242.137 780.605,243.202 782.684,243.904 
				784.84,244.294 786.945,244.294 789.023,243.982 791.102,243.28 793.076,242.241 793.57,241.929 793.804,241.747 
				793.882,241.747 794.142,241.799 794.609,241.877 798.429,242.631 798.922,242.709 799.182,242.761 799.286,242.631 
				799.546,242.319 799.962,241.669 800.845,240.474 802.56,237.98 802.742,237.668 802.794,237.538 802.742,237.538 
				802.742,237.408 802.56,237.149 801.884,235.876 801.209,234.602 801.027,234.343 800.949,234.161 800.949,234.031 
				801.339,233.407 802.871,230.653 804.223,227.717 804.82,226.133 805.132,225.301 805.21,225.249 805.21,225.171 
				805.262,225.171 805.625,225.119 806.379,224.911 807.86,224.6 808.587,224.418 808.899,224.34 809.081,224.288 809.185,224.288 
				809.263,224.288 809.263,224.236 809.393,223.898 810.354,220.962 810.796,219.455 810.978,218.754 811.056,218.416 
				810.796,218.052 810.25,217.403 808.042,214.727 808.042,214.545 808.094,214.025 808.276,213.142 808.509,211.219 
				808.769,209.322 808.899,208.361 808.951,207.842 808.951,207.608 808.951,207.53 808.042,207.53 806.301,207.53 804.586,207.53 
				804.171,207.53 804.093,207.348 804.093,206.906 804.093,205.036 806.613,203.84 807.236,203.529 807.6,203.399 807.704,203.269 
				807.704,203.009 807.704,200.982 807.704,198.93 807.704,197.917 807.704,197.657 807.548,197.605 807.236,197.397 
				804.638,196.202 804.352,196.072 804.171,195.942 804.093,195.864 804.093,195.422 804.093,194.539 804.093,193.578 
				804.171,193.396 804.586,193.396 805.444,193.396 808.951,193.396 			"/>
			<polyline fill="none" stroke="#FFFFFF" stroke-miterlimit="10" points="808.951,193.396 808.509,189.577 808.224,187.654 
				808.094,186.771 807.964,186.251 807.964,186.069 807.964,185.991 808.509,185.497 809.705,184.406 810.874,183.315 
				811.16,183.081 811.16,183.003 811.108,182.821 810.926,182.12 810.484,180.639 809.575,177.729 809.081,176.326 
				808.951,176.248 808.821,176.196 808.458,176.196 805.677,175.806 805.34,175.806 805.262,175.806 805.21,175.754 
				805.132,175.676 805.08,175.495 804.456,173.884 803.105,170.896 801.624,168.09 801.261,167.466 801.027,167.129 
				800.949,166.947 800.897,166.895 801.027,166.765 801.131,166.453 801.52,165.804 802.118,164.53 802.482,163.881 
				802.612,163.569 802.742,163.439 802.742,163.387 802.69,163.309 802.326,162.686 801.52,161.465 799.78,159.048 
				798.922,157.905 798.792,157.775 798.74,157.723 798.688,157.723 798.636,157.723 798.195,157.827 797.259,158.087 
				795.467,158.659 794.609,158.918 794.142,159.048 793.934,159.178 793.804,159.178 793.752,159.178 793.622,159.126 
				791.673,158.035 789.647,157.256 787.542,156.762 785.386,156.684 783.307,156.944 781.203,157.593 779.124,158.529 
				777.15,159.88 775.253,161.465 773.46,163.387 771.798,165.544 770.187,168.038 768.732,170.766 767.381,173.832 
				766.134,177.079 765.094,180.587 764.159,184.224 763.484,187.966 762.99,191.785 762.704,195.63 762.574,197.527 
				762.574,198.488 762.574,198.748 762.522,198.8 762.392,198.8 762.133,198.8 761.665,198.8 761.145,198.8 761.145,199.008 			"/>
			<polyline fill="none" stroke="#FFFFFF" stroke-miterlimit="10" points="777.098,246.268 777.072,246.242 776.137,245.073 
				775.747,244.605 775.227,244.008 775.227,243.982 774.5,243.15 774.188,242.761 774.162,242.761 773.409,241.877 
				773.227,241.643 772.525,240.786 772.213,240.422 772.187,240.422 771.746,239.903 771.122,239.123 770.628,238.5 
				770.187,237.98 770.083,237.85 769.589,237.279 769.225,236.837 769.018,236.551 769.018,236.525 768.836,236.265 
				768.16,235.122 767.563,234.109 767.277,233.589 766.497,232.186 766.342,231.874 765.77,230.653 765.458,230.03 
				765.354,229.692 765.094,229.224 			"/>
			<polyline fill="none" stroke="#FFFFFF" stroke-miterlimit="10" points="719.705,154.917 720.926,156.684 721.965,158.295 
				722.901,159.698 723.628,160.763 724.252,161.724 724.797,162.478 725.161,163.127 725.473,163.569 725.914,164.219 
				726.096,164.53 726.33,164.842 727.083,166.063 728.487,168.61 729.786,171.338 731.007,174.222 732.072,177.261 
				732.981,180.457 733.735,183.705 734.332,187.082 734.826,190.59 735.19,194.097 735.372,197.657 735.372,198.099 
				735.372,198.228 735.32,198.228 734.904,198.228 733.969,198.306 733.969,202.489 733.917,204.594 733.917,204.854 
				733.969,204.932 734.099,204.932 734.28,204.932 735.19,204.932 735.268,204.932 735.32,204.932 735.32,205.113 735.32,205.555 
				735.19,207.27 734.826,210.855 734.28,214.285 733.657,217.663 732.851,220.91 731.942,224.106 730.903,227.094 730.279,228.549 
				729.967,229.328 729.838,229.64 729.916,229.64 730.409,229.9 731.396,230.342 733.293,231.225 735.268,232.186 735.761,232.368 
				735.995,232.498 735.995,232.628 735.813,233.07 735.45,233.849 735.138,234.421 734.306,236.005 733.839,236.889 
				733.319,237.772 733.319,237.798 732.41,239.357 732.124,239.825 731.63,240.604 731.5,240.786 731.267,241.098 730.825,241.747 
				730.435,242.241 730.227,242.501 729.422,243.592 729.37,243.67 728.383,244.917 728.357,244.917 728.305,244.995 
				727.629,245.878 727.369,246.164 726.824,246.84 726.33,247.489 726.252,247.567 726.252,247.593 725.732,248.295 
				725.239,248.866 724.927,249.256 724.381,249.906 723.888,250.529 723.628,250.919 723.758,250.971 724.018,251.101 
				724.381,251.231 725.057,251.542 725.421,251.75 725.551,251.802 726.278,252.14 726.642,252.322 727.006,252.504 
				727.707,252.893 728.253,253.153 728.928,253.465 729.967,253.907 730.279,254.037 731.578,254.478 731.864,254.556 
				733.423,255.024 733.527,255.05 735.19,255.44 735.372,255.492 737.034,255.803 739.139,256.167 739.269,256.193 
				740.854,256.375 742.698,256.583 743.504,256.661 744.179,256.687 747.817,256.765 751.324,256.687 752.182,256.661 
				752.779,256.583 754.624,256.401 756.365,256.193 758.443,255.803 760.288,255.44 762.081,254.998 763.795,254.556 
				763.925,254.504 765.354,253.985 765.588,253.907 766.679,253.465 767.277,253.205 767.926,252.893 768.576,252.53 
				768.966,252.322 769.148,252.14 769.329,252.062 769.641,251.932 770.057,251.724 770.265,251.62 771.252,251.231 
				771.928,250.919 772.057,250.841 771.876,250.659 771.486,250.139 771.07,249.698 770.68,249.256 769.979,248.425 
				769.277,247.593 768.862,247.1 768.862,247.074 768.108,246.19 767.797,245.826 767.121,245.047 766.679,244.553 
				766.264,244.112 765.588,243.28 765.51,243.176 765.094,242.631 764.315,241.695 764.289,241.669 763.743,240.968 
				763.38,240.396 763.25,240.214 763.172,240.085 762.704,239.383 762.288,238.63 762.262,238.63 761.327,236.941 761.041,236.447 
				760.47,235.278 759.664,233.693 759.482,233.329 759.119,232.576 758.937,232.186 758.937,232.056 759.197,231.926 
				759.69,231.745 763.613,229.9 764.549,229.458 765.042,229.25 765.094,229.224 765.094,229.198 764.964,228.887 764.653,228.107 
				764.107,226.652 763.068,223.586 762.133,220.391 761.353,217.143 760.73,213.713 760.236,210.258 759.924,206.776 
				759.872,205.867 759.872,205.503 759.924,205.503 760.054,205.503 760.47,205.503 760.911,205.503 761.145,205.503 
				761.275,205.503 761.275,205.425 761.275,205.036 761.223,203.659 761.145,200.853 761.145,199.761 761.145,199.242 
				761.145,199.008 761.093,198.8 760.652,198.8 759.742,198.8 759.742,197.085 760.002,193.526 760.366,190.018 760.859,186.563 
				761.535,183.185 762.314,179.937 763.25,176.768 764.289,173.78 765.536,170.896 766.809,168.168 767.563,166.895 
				767.978,166.193 768.29,165.674 768.654,165.102 769.148,164.349 769.771,163.387 770.499,162.244 771.434,160.763 
				772.603,159.126 773.902,157.074 774.188,156.814 775.045,155.801 775.851,154.787 776.422,153.774 776.838,152.605 
				777.098,151.54 777.15,150.397 776.968,149.305 776.656,148.162 776.163,147.071 775.487,146.058 774.63,145.044 
				773.642,144.083 772.525,143.2 771.174,142.29 769.771,141.407 768.108,140.627 766.393,139.874 764.471,139.173 760.47,138.081 
				756.105,137.25 753.948,137.016 752.857,136.886 752.312,136.886 752.104,136.808 752.104,135.405 752.104,132.599 
				752.104,132.495 751.818,132.417 751.116,132.417 749.791,132.417 747.011,132.417 744.309,132.417 743.556,132.417 
				743.452,132.417 743.374,132.547 743.374,132.677 743.374,133.379 743.374,136.185 743.374,136.808 738.957,137.328 
				734.644,138.159 730.643,139.302 728.798,140.004 727.083,140.757 725.551,141.537 724.07,142.42 722.849,143.304 
				721.731,144.213 720.744,145.226 719.887,146.239 719.263,147.331 718.769,148.422 718.484,149.487 718.406,150.63 
				718.484,151.722 718.717,152.813 719.159,153.904 719.731,154.891 719.757,154.917 			"/>
		</g>
	</g>
</g>
<g id="_x38_5Lawn_1_">
	<a id="LWPOLYLINE_2_" xlink:href="http://soundscape.iath.virginia.edu/node/665" >
		<g opacity="0.69">
			<polyline fill="#05C653" stroke="#FFFFFF" stroke-miterlimit="10" points="587.355,320.467 587.355,395.762 579.717,395.762 
				579.717,498.518 587.355,498.518 587.355,542.114 576.962,542.114 576.962,703.486 585.718,703.486 585.718,768.024 
				905.393,768.024 905.393,707.227 911.396,707.227 911.396,549.65 901.521,549.65 901.521,487.761 911.396,487.761 
				911.396,377.496 899.913,377.496 899.913,320.467 786.295,320.467 786.295,349.982 699.257,349.982 699.257,320.467 
				587.355,320.467 			"/>
		</g>
	</a>
</g>
<g id="_x38_9RangeWest" opacity="0.69">
	<a xlink:href="http://soundscape.iath.virginia.edu/node/679" >
		<rect x="172.017" y="259.141" fill="#05C653" stroke="#FFFFFF" stroke-miterlimit="10" width="15.345" height="1093.088"/>
	</a>
</g>
<g id="_x35_2East">
	<a id="POLYLINE_103_" xlink:href="http://soundscape.iath.virginia.edu/node/831" >
		<g>
			<polyline fill="#0621EA" stroke="#FFFFFF" stroke-width="0.75" stroke-miterlimit="10" points="933.396,1293.06 958.018,1293.06 
				958.018,1319.955 933.396,1319.955 933.396,1293.06 			"/>
		</g>
	</a>
</g>
<g id="_x34_8East">
	<a id="POLYLINE_106_" xlink:href="http://soundscape.iath.virginia.edu/node/829" >
		<g>
			<polyline fill="#0621EA" stroke="#FFFFFF" stroke-width="0.75" stroke-miterlimit="10" points="933.396,1169.851 
				958.018,1169.851 958.018,1194.067 933.396,1194.067 933.396,1169.851 			"/>
		</g>
	</a>
</g>
<g id="_x34_4East">
	<a id="POLYLINE_108_" xlink:href="http://soundscape.iath.virginia.edu/node/827" >
		<g>
			<polyline fill="#0621EA" stroke="#FFFFFF" stroke-width="0.75" stroke-miterlimit="10" points="933.396,1124.14 958.018,1124.14 
				958.018,1148.356 933.396,1148.356 933.396,1124.14 			"/>
		</g>
	</a>
</g>
<g id="_x34_2East">
	<a id="POLYLINE_109_" xlink:href="http://soundscape.iath.virginia.edu/node/826" >
		<g>
			<polyline fill="#0621EA" stroke="#FFFFFF" stroke-width="0.75" stroke-miterlimit="10" points="933.396,1091.339 
				958.018,1091.339 958.018,1111.251 933.396,1111.251 933.396,1091.339 			"/>
		</g>
	</a>
</g>
<g id="_x34_0East">
	<a id="POLYLINE_110_" xlink:href="http://soundscape.iath.virginia.edu/node/825" >
		<g>
			<polyline fill="#0621EA" stroke="#FFFFFF" stroke-width="0.75" stroke-miterlimit="10" points="933.396,1068.199 
				958.018,1068.199 958.018,1091.339 933.396,1091.339 933.396,1068.199 			"/>
		</g>
	</a>
</g>
<g id="_x33_0East">
	<a id="POLYLINE_116_" xlink:href="http://soundscape.iath.virginia.edu/node/820" >
		<g>
			<polyline fill="#0621EA" stroke="#FFFFFF" stroke-width="0.75" stroke-miterlimit="10" points="933.396,882.066 958.018,882.066 
				958.018,906.829 933.396,906.829 933.396,882.066 			"/>
		</g>
	</a>
</g>
<g id="_x32_6East">
	<a id="POLYLINE_118_" xlink:href="http://soundscape.iath.virginia.edu/node/818" >
		<g>
			<polyline fill="#0621EA" stroke="#FFFFFF" stroke-width="0.75" stroke-miterlimit="10" points="933.396,823.973 958.018,823.973 
				958.018,846.016 933.396,846.016 933.396,823.973 			"/>
		</g>
	</a>
</g>
<g id="_x32_4East">
	<a id="POLYLINE_56_" xlink:href="http://soundscape.iath.virginia.edu/node/817" >
		<g>
			<polyline fill="#0621EA" stroke="#FFFFFF" stroke-width="0.75" stroke-miterlimit="10" points="933.396,798.702 958.018,798.702 
				958.018,823.973 933.396,823.973 933.396,798.702 			"/>
		</g>
	</a>
</g>
<g id="_x32_2East">
	<a id="POLYLINE_120_" xlink:href="http://soundscape.iath.virginia.edu/node/816" >
		<g>
			<polyline fill="#0621EA" stroke="#FFFFFF" stroke-width="0.75" stroke-miterlimit="10" points="933.396,773.938 958.018,773.938 
				958.018,798.702 933.396,798.702 933.396,773.938 			"/>
		</g>
	</a>
</g>
<g id="_x32_0East">
	<a id="POLYLINE_122_" xlink:href="http://soundscape.iath.virginia.edu/node/815" >
		<g>
			<polyline fill="#0621EA" stroke="#FFFFFF" stroke-width="0.75" stroke-miterlimit="10" points="933.396,690.006 958.018,690.006 
				958.018,713.146 933.396,713.146 933.396,690.006 			"/>
		</g>
	</a>
</g>
<g id="_x31_4East">
	<a id="POLYLINE_125_" xlink:href="http://soundscape.iath.virginia.edu/node/812" >
		<g>
			<polyline fill="#0621EA" stroke="#FFFFFF" stroke-width="0.75" stroke-miterlimit="10" points="933.396,604.49 958.018,604.49 
				958.018,627.102 933.396,627.102 933.396,604.49 			"/>
		</g>
	</a>
</g>
<g id="_x36_East">
	<a id="POLYLINE_131_" xlink:href="http://soundscape.iath.virginia.edu/node/808" >
		<g>
			<polyline fill="#0621EA" stroke="#FFFFFF" stroke-width="0.75" stroke-miterlimit="10" points="933.396,444.197 958.018,444.197 
				958.018,469.995 933.396,469.995 933.396,444.197 			"/>
		</g>
	</a>
</g>
<g id="_x32_9West">
	<a id="POLYLINE_150_" xlink:href="http://soundscape.iath.virginia.edu/node/792" >
		<g>
			<polyline fill="#0621EA" stroke="#FFFFFF" stroke-width="0.75" stroke-miterlimit="10" points="540.406,891.22 565.596,891.22 
				565.596,916.491 540.406,916.491 540.406,891.22 			"/>
		</g>
	</a>
</g>
<g id="_x32_5West">
	<a id="POLYLINE_152_" xlink:href="http://soundscape.iath.virginia.edu/node/790" >
		<g>
			<polyline fill="#0621EA" stroke="#FFFFFF" stroke-width="0.75" stroke-miterlimit="10" points="540.406,843.885 565.596,843.885 
				565.596,865.381 540.406,865.381 540.406,843.885 			"/>
		</g>
	</a>
</g>
<g id="_x32_7West">
	<a id="POLYLINE_151_" xlink:href="http://soundscape.iath.virginia.edu/node/791" >
		<g>
			<polyline fill="#0621EA" stroke="#FFFFFF" stroke-width="0.75" stroke-miterlimit="10" points="540.406,865.381 565.596,865.381 
				565.596,891.22 540.406,891.22 540.406,865.381 			"/>
		</g>
	</a>
</g>
<g id="_x32_3West">
	<a id="POLYLINE_55_" xlink:href="http://soundscape.iath.virginia.edu/node/789" >
		<g>
			<polyline fill="#0621EA" stroke="#FFFFFF" stroke-width="0.75" stroke-miterlimit="10" points="540.406,819.142 565.596,819.142 
				565.596,843.885 540.406,843.885 540.406,819.142 			"/>
		</g>
	</a>
</g>
<g id="_x31_7West">
	<a id="POLYLINE_157_" xlink:href="http://soundscape.iath.virginia.edu/node/786" >
		<g>
			<polyline fill="#0621EA" stroke="#FFFFFF" stroke-width="0.75" stroke-miterlimit="10" points="540.406,663.131 565.596,663.131 
				565.596,686.271 540.406,686.271 540.406,663.131 			"/>
		</g>
	</a>
</g>
<g id="_x35_West">
	<a id="POLYLINE_164_" xlink:href="http://soundscape.iath.virginia.edu/node/780" >
		<g>
			<polyline fill="#0621EA" stroke="#FFFFFF" stroke-width="0.75" stroke-miterlimit="10" points="540.406,448.5 565.596,448.5 
				565.596,472.168 540.406,472.168 540.406,448.5 			"/>
		</g>
	</a>
</g>
</svg>
